**ABCDEFGHIJKLMNOPQRSTUVWXYZabcdefghijklmnopqrstuvwxyz**************************
**PARASOLID !"#$%&'()*+,-./:;<=>?@[\]^_`{|}~0123456789**************************
**PART1;
MC=unknown;
MC_MODEL=unknown;
MC_ID=unknown;
OS=unknown;
OS_RELEASE=unknown;
FRU=sdl_parasolid_customer_support;
APPL=parasolid_acceptance_tests;
SITE=unknown;
USER=unknown;
FORMAT=text;
GUISE=transmit;
KEY=test_2;
FILE=test_2.x_t;
DATE=unknown;
**PART2;
SCH=SCH_3301252_33103;
USFLD_SIZE=1;
**PART3;
**END_OF_HEADER*****************************************************************
T51 : TRANSMIT FILE created by modeller version 330125223 SCH_3301252_33103_1300
6230 0 12 35 CCCI7 lattice222 0 CCCI4 mesh1006 0 I8 polyline1008 0 CCCCCCCDI5 ow
ner1040 0 CCCCCCI13 boundary_mesh1006 0 I17 boundary_polyline1008 0 CCCA16 index
_map_offset0 0 1 dA9 index_map82 0 A17 node_id_index_map82 0 A20 schema_embeddin
g_map82 0 A5 child12 0 A14 lowest_node_id0 0 1 dA16 mesh_offset_data206 0 Z1 490
 2 3 0 0 0 0 0 0 0 1e3 1e-8 0 4 0 1 0 1 1 5 6 7 8 0 0 9 10 11 0 0 0 0 0 0 0 81 2
55 1 2 474 12 1 13 0 0 0 14 70 11 CI9 list_type0 0 1 uI10 notransmit0 0 1 lCCCDC
CDI12 finger_index0 0 1 dI12 finger_block1012 0 CZ3 0 4 T1 0 0 11 20 1 15 15 13
 255 5 336 0 1 0 16 0 0 17 0 53 255 6 384 0 18 19 0 20 +0 0 .00270195145833333 .
00502605145833333 0 0 1 0 -1 0 137 255 7 464 0 1 21 0 22 +23 24 0 ?29 255 8 365
 0 25 26 0 .00222250110263103 -543631979710302e-28 -.0015621 19 8 CCCCCCCA5 owne
r12 0 Z9 346 0 1 17 0 27 V0 16 255 10 348 28 1e-8 29 0 30 0 0 0 1 18 255 11 352
 0 31 0 25 26 2000000000021685e-23 1 17 255 31 0 32 29 29 11 33 30 34 35 +18 25
 353 0 33 11 36 8 2e-8 1 29 26 366 0 11 37 8 -.0022225 -216840434497101e-33 -.00
15621 29 37 367 0 38 39 26 -.002660652249564945 -304715960925978e-21 -.0015621 1
8 38 355 0 40 36 41 37 2e-8 1 29 39 368 0 36 42 37 .00266065 -216840434497101e-3
3 -.0015621 18 36 354 0 43 25 38 39 2000000000118155e-23 1 29 42 309 0 44 45 39
 -.00266065188015622 3047159185662475e-22 .0466470988159463 18 44 300 0 46 41 47
 42 2e-8 1 29 45 310 0 41 48 42 .00266065 488753475922711e-33 .0466471 18 41 298
 0 49 38 44 45 200000000006133e-22 1 29 48 282 0 47 50 45 .0022225 0 0 18 47 270
 0 51 44 52 48 2e-8 1 29 50 254 0 52 53 48 -.002222499985424405 -254535866323017
e-21 0 18 52 242 0 54 47 55 50 2e-8 1 29 53 222 0 56 57 50 -.0022225 -5436363165
18992e-28 .0466471 18 56 210 0 58 55 59 53 2e-8 1 29 57 223 0 55 60 53 .0022225
 -433680868994202e-33 .0466471 18 55 209 0 61 52 56 57 200000000006133e-22 1 29
 60 191 0 59 62 57 .0022225 272177751110499e-33 .045085 18 59 179 0 63 56 64 60
 2000000000021685e-23 1 29 62 159 0 64 65 60 -.002222499996356095 12726801578479
26e-22 .045085 18 64 147 0 66 59 67 62 200000000000449e-22 1 29 65 96 0 67 68 62
 -.002787649995429505 159630454084416e-21 0 18 67 84 0 69 64 70 65 2000000000018
71e-22 1 29 68 97 0 70 71 65 .00278765 -896576620874215e-33 0 18 70 85 0 72 67 7
3 68 2000000000123795e-23 1 29 71 19 0 74 75 68 -.002787651374277415 -1596305330
50261e-21 .045085 18 74 7 0 76 73 0 71 2e-8 1 29 75 18 0 73 0 71 .00278765 -2168
40434497101e-33 .045085 18 73 9 0 77 70 74 75 2000000000704845e-23 1 17 77 0 78
 76 76 73 79 80 81 82 -15 255 78 465 0 77 83 84 17 76 0 78 77 77 74 82 85 86 79
 -17 79 0 87 82 82 74 77 80 88 0 +16 80 13 89 1e-8 79 90 85 0 0 0 1 133 255 81 4
59 0 77 91 92 0 +92 -.002787649995429505 -159630454093047e-21 .045085 .00278765
 341388664964312e-33 .045085 0 1 17 82 0 87 79 79 73 76 85 93 0 +15 87 8 0 82 94
 0 16 85 10 95 1e-8 82 80 0 0 0 0 1 133 93 11 0 82 0 96 0 +96 -.0027876513742774
15 -159630533050261e-21 .045085 .00278765 -433680868994202e-33 .045085 0 1 137 9
6 12 0 1 93 88 97 +98 99 0 ?133 88 16 0 79 96 100 0 +100 .00278765 0 .045085 -.0
02787651374277415 -159630533050261e-21 .045085 0 1 141 255 97 93 97 97 96 50 255
 98 6 0 94 0 23 101 +-.002787661000206485 -.00287031509039429 .045085 0 0 1 1 0
 0 134 255 99 0 0 0 0 0 0 +102 103 136 255 102 3 12 2 6 1 FFF1 104 105 106 135 2
55 103 2 0 45 255 24 104 962592907027826e-23 .00287015545986124 737335907803637e
-22 .00240439421616845 .0001168681498154304 .00194215560041985 .0006864057641506
83 .000906148564642763 .001251904766952224 .0004383136621228355 .002600559757030
56 832193120599134e-22 .003333036712390905 461534710006474e-19 .0046161355287219
4 .000649908660851741 .0051185417898485 .00118490423820475 .00550889232726491 .0
0217079962200169 .00557531116042971 .002518973935558045 .00557531100020649 .0028
7031509039429 127 255 6 105 4 2 2 2 2 4 128 255 6 106 0 .1603144508534795 .40053
12448629735 .640748038872467 .88096483288196 1 14 255 94 2 107 1e-8 83 108 109 5
 98 +0 0 83 108 27 51 255 23 57 0 83 98 110 111 +0 0 .045085 0 0 -1 .00278765 -1
 0 0 141 101 96 112 113 98 141 112 114 115 101 98 141 113 100 101 115 98 137 100
 17 0 1 88 116 117 +98 118 0 ?141 115 119 113 112 98 137 119 25 0 1 116 120 121
 +98 122 0 ?133 116 24 0 63 100 119 0 +119 -.002222501095665365 1272680787362326
e-22 .045085 .0022225 0 .045085 0 1 133 120 28 0 123 119 114 0 +114 .0022225 -43
3680868994202e-33 .045085 -.002222501095665365 1272680787362326e-22 .045085 0 1
 141 121 116 121 121 119 134 122 0 0 0 0 0 0 +124 125 136 124 3 12 2 6 1 FFF1 12
6 127 128 135 125 2 0 45 24 126 .000565159904541121 .00287044235847303 .00056521
1015433143 .00324177820196387 .000658327292605416 .00361030557215068 .0011124005
61437624 .00443627929087957 .00156325398052769 .00480926839311641 .0026384914441
4368 .00515865485093822 .0032224707935198 .0051219245819382 .004245442514968235
 .00464057078592936 .00464599420379351 .004214036726536295 .00495720761631229 .0
0342801534993281 .0050101611279471 .003150427628418635 .00501016100020648 .00287
031509039429 127 6 127 4 2 2 2 2 4 128 6 128 0 .160314450853481 .400531244862975
 .64074803887247 .880964832881962 1 17 123 0 109 63 63 64 129 130 120 0 -137 114
 29 0 1 120 86 131 +98 132 0 ?133 86 63 0 76 114 133 0 +133 .00278765 3413886649
64312e-33 .045085 -.002787649995429505 -1596304540937295e-22 .045085 0 1 141 131
 120 131 131 114 134 132 0 0 0 0 0 0 +134 135 136 134 3 12 2 6 1 FFF1 136 137 13
8 135 135 2 0 45 24 136 .00501016100020648 .00287031509039429 .00501016121532378
 .002400977457984045 .00486157629958413 .00194368791431756 .00425343537260925 .0
01106671473532186 .003759390456609155 .000793151378418926 .0026488443985866 .000
5813237531239 .00207407475788159 .000690977571460758 .00111950166443396 .0012967
88732428752 .000775568650933452 .00177018269067479 .000588248638907243 .00249976
0595552995 .000565155460180693 .002685449031769005 .000565159904541121 .00287044
235847303 127 6 137 4 2 2 2 2 4 128 6 138 0 .199454580904784 .439680174459642 .6
79905768014499 .920131361569357 1 137 133 62 0 1 86 139 140 +23 141 0 ?133 139 5
9 0 72 133 142 0 +142 -.002787649995429505 1596304540849365e-22 0 .00278765 3413
88664964312e-33 0 0 1 141 140 86 140 140 133 134 141 0 0 0 0 0 0 +143 144 136 14
3 3 24 2 12 1 FFF1 145 146 147 135 144 2 0 45 48 145 3.141592653589795 0 3.22576
169544909 0 3.309930737308385 0 3.49510262939883 0 3.596105479629985 0 3.7981111
8009229 0 3.899114030323445 0 4.10111973078575 0 4.202122581016905 0 4.404128281
47921 0 4.50513113171036 0 4.70713683217267 0 4.80813968240382 0 5.0101453828661
3 0 5.11114823309728 0 5.31315393355959 0 5.41415678379074 0 5.61616248425305 0
 5.7171653344842 0 5.91917103494651 0 6.02017388517766 0 6.17516050484934 0 6.22
914427428986 0 6.28312804373038 0 127 12 146 4 2 2 2 2 2 2 2 2 2 2 4 128 12 147
 0 .0803769794764539 .176829354848198 .2732817302199425 .369734105591687 .466186
480963432 .562638856335176 .659091231706921 .755543607078666 .85199598245041 .94
8448357822155 1 17 72 0 84 69 69 70 148 90 139 149 +137 142 58 0 1 139 150 151 +
23 152 0 ?133 150 128 0 148 142 153 0 +153 .00278765 0 0 -.002787649995429505 15
9630454085215e-21 0 1 0 141 151 139 151 151 142 134 152 0 0 0 0 0 0 +154 155 136
 154 3 24 2 12 1 FFF1 156 157 158 135 155 2 0 45 48 156 6.28324257062879 .045085
 6.23624172096115 .045085 6.18924087129352 .045085 6.04123533036306 .045085 5.94
023063910023 .045085 5.73822125657457 .045085 5.63721656531174 .045085 5.4352071
8278609 .045085 5.33420249152326 .045085 5.13219310899761 .045085 5.031188417734
78 .045085 4.82917903520912 .045085 4.72817434394629 .045085 4.52616496142064 .0
45085 4.42516027015781 .045085 4.223150887632155 .045085 4.122146196369325 .0450
85 3.92013681384367 .045085 3.819132122580845 .045085 3.61712274005519 .045085 3
.51611804879236 .045085 3.32393978954962 .045085 3.232766221569705 .045085 3.141
592653589795 .045085 127 12 157 4 2 2 2 2 2 2 2 2 2 2 4 128 12 158 0 .0448816872
427984 .1413323045267492 .2377829218106995 .3342335390946505 .430684156378601 .5
27134773662552 .623585390946502 .720036008230452 .816486625514402 .9129372427983
53 1 17 148 0 159 149 149 67 72 90 150 0 -137 153 127 0 1 150 160 161 -110 162 0
 ?133 160 126 0 149 153 163 0 +163 -.002787649995429505 159630454085215e-21 0 .0
0278765 0 0 1 0 141 161 150 161 161 153 50 110 120 0 164 23 165 166 +-.002787661
000206485 -.00287113207237507 0 0 0 1 1 0 0 134 162 0 0 0 0 0 0 +167 168 136 167
 3 12 2 6 1 FFF1 169 170 171 135 168 2 0 45 24 169 1100477697990598e-23 .0028712
91702829155 539501025359608e-23 .00263925721590813 289708034938077e-19 .00240635
0863056375 .0002639234747044685 .001491251719517384 .00069531362749256 .00089748
0440466664 .001892620801702195 .000137620155722272 .002613546036278485 829378720
405012e-22 .004006487870169465 .000265775302183356 .00462616123658954 .000659019
078631941 .00538894351426678 .00170887684294272 .00557531135950414 .002282448584
861095 .00557531100020649 .00287113207237507 127 6 170 4 2 2 2 2 4 128 6 171 0 .
0798686384306436 .3200942319855015 .560319825540359 .800545419095217 1 14 164 10
5 172 1e-8 0 83 173 5 110 -0 0 0 83 27 51 165 150 0 108 110 174 175 +0 0 .046647
1 0 0 -1 .0022225 -1 0 0 141 166 153 176 177 110 141 176 178 179 166 110 141 177
 163 166 179 110 137 163 125 0 1 160 180 181 -110 182 0 ?141 179 183 177 176 110
 137 183 123 0 1 180 184 185 -110 186 0 ?133 180 124 0 187 163 183 0 +183 .00222
25 0 0 -.00222250108655562 -254535992432175e-21 0 1 0 133 184 122 0 188 183 178
 0 +178 -.00222250108655562 -254535992432175e-21 0 .0022225 0 0 1 0 141 185 180
 185 185 183 134 186 0 0 0 0 0 0 +189 190 136 189 3 12 2 6 1 FFF1 191 192 193 13
5 190 2 0 45 24 191 .000565159913650867 .00287087753638264 .000565134270536025 .
003055951814551485 .000588227190961833 .00324172379439648 .000775568641158611 .0
03971371911503395 .001119501655607196 .004444755466083515 .00207407475090564 .00
505054630792027 .002648844392574975 .00516018953341751 .00375939045245961 .00494
834144107718 .00425343536941593 .0046348108296781 .00486157629806271 .0037977759
9317382 .0050101612145734 .003340477963888995 .00501016100020649 .00287113207237
507 127 6 192 4 2 2 2 2 4 128 6 193 0 .0799023431560134 .320119137165508 .560335
931175001 .800552725184493 1 17 188 0 173 187 187 47 54 194 184 0 -137 178 121 0
 1 184 195 196 -110 197 0 ?133 195 156 0 66 178 198 0 +198 .0022225 272177751110
499e-33 .045085 -.002222499996356095 1272680157847478e-22 .045085 0 1 141 196 18
4 196 196 178 134 197 0 0 0 0 0 0 +199 200 136 199 3 12 2 6 1 FFF1 201 202 203 1
35 200 2 0 45 24 201 .00501016100020649 .00287113207237507 .00501016112830109 .0
02591014599325075 .00495720761702379 .00231342189379486 .00464599420557758 .0015
2738556220899 .00424544251750172 .001100841049023882 .003222470797515175 .000619
466847722968 .00263849144889894 .000582725964011934 .00156325398674622 .00093209
196615636 .001112400568406176 .00130507057621581 .000658327300768673 .0021310275
7335379 .000565211024075615 .00249954823486016 .000565159913650867 .002870877536
38264 127 6 202 4 2 2 2 2 4 128 6 203 0 .1190351671180382 .3592519611275305 .599
468755137024 .839685549146519 1 17 66 0 204 129 129 64 63 205 195 123 +137 198 1
55 0 1 195 206 207 +165 208 0 ?133 206 152 0 209 198 210 0 +210 -.0022225 -54363
3138505584e-28 .0466471 .0022225 272177751110499e-33 .0466471 0 1 141 207 195 20
7 207 198 134 208 0 0 0 0 0 0 +211 212 136 211 3 24 2 12 1 FFF1 213 214 215 135
 212 2 0 45 48 213 3.141592653589795 .0015621 3.0574236117305 .0015621 2.9732545
69871205 .0015621 2.788082677780755 .0015621 2.687079827549605 .0015621 2.485074
127087295 .0015621 2.384071276856145 .0015621 2.182065576393835 .0015621 2.08106
2726162685 .0015621 1.879057025700375 .0015621 1.778054175469225 .0015621 1.5760
48475006915 .0015621 1.475045624775762 .0015621 1.273039924313456 .0015621 1.172
037074082302 .0015621 .970031373619996 .0015621 .869028523388843 .0015621 .66702
2822926536 .0015621 .566019972695382 .0015621 .364014272233076 .0015621 .2630114
220019225 .0015621 .1080248023302472 .0015621 .0540410328897253 .0015621 5726344
92032855e-19 .0015621 127 12 214 4 2 2 2 2 2 2 2 2 2 2 4 128 12 215 0 .080376979
4764538 .176829354848198 .2732817302199425 .369734105591687 .466186480963431 .56
2638856335176 .65909123170692 .755543607078665 .85199598245041 .948448357822154
 1 17 209 0 216 58 58 55 217 218 206 0 -137 210 151 0 1 206 219 220 +165 221 0 ?
133 219 221 0 49 210 222 0 +222 -.002660652249564945 30471596087437e-20 .0466471
 .00266065 0 .0466471 0 1 141 220 206 220 220 210 134 221 0 0 0 0 0 0 +223 224 1
36 223 3 24 2 12 1 FFF1 225 226 227 135 224 2 0 45 48 225 -2446043367854145e-26
 0 .0469999929501356 0 .0939999859247316 0 .242002829131269 0 .343005679363208 0
 .545011379827088 0 .646014230059027 0 .848019930522907 0 .949022780754846 0 1.1
51028481218726 0 1.252031331450664 0 1.454037031914544 0 1.555039882146485 0 1.7
57045582610365 0 1.858048432842305 0 2.060054133306185 0 2.16105698353812 0 2.36
3062684002 0 2.46406553423394 0 2.66607123469782 0 2.76707408492976 0 2.95924884
13044 0 3.050420747447095 0 3.141592653589795 0 127 12 226 4 2 2 2 2 2 2 2 2 2 2
 4 128 12 227 0 .04488168724279895 .1413323045267498 .2377829218107005 .33423353
90946515 .430684156378602 .527134773662553 .623585390946503 .720036008230454 .81
6486625514403 .912937242798354 1 17 49 0 228 229 229 41 46 230 219 231 -137 222
 220 0 1 219 232 233 +174 234 0 ?133 232 219 0 229 222 235 0 +235 .00266065 -867
361737988404e-33 .0466471 -.002660652249564945 30471596087437e-20 .0466471 0 1 1
41 233 219 233 233 222 50 174 213 0 236 165 237 238 +-.002660685852673695 .00273
9549027050585 .0466471 0 0 -1 1 0 0 134 234 0 0 0 0 0 0 +239 240 136 239 3 12 2
 6 1 FFF1 241 242 243 135 240 2 0 45 24 241 336031087511124e-22 .002739244311089
71 948383597163711e-22 .002294710090125025 .000111568373900507 .0018535382124939
25 .000655159067533912 .000864749693065082 .001194895095139114 .0004182410141666
325 .00248210809518892 173398213199855e-27 .00318121488023873 4398408667448715e-
20 .004405858320005205 .00062025777337724 .0048853759902364 .00113089249059156 .
00525794301428747 .002071890270406195 .00532133596923011 .002404208395027275 .00
53213358526737 .002739549027050585 127 6 242 4 2 2 2 2 4 128 6 243 0 .1603144508
53485 .400531244862978 .640748038872471 .880964832881962 1 14 236 198 244 1e-8 1
08 245 246 5 174 +0 0 108 245 27 51 237 243 0 245 174 247 248 +0 0 -.0015621 0 0
 1 .0022225 1 0 0 141 238 222 249 250 174 141 249 251 252 238 174 141 250 235 23
8 252 174 137 235 218 0 1 232 253 254 +174 255 0 ?141 252 256 250 249 174 137 25
6 216 0 1 253 257 258 +174 259 0 ?133 253 217 0 61 235 256 0 +256 -.0022225 -543
636316518992e-28 .0466471 .0022225 -867361737988404e-33 .0466471 0 1 133 257 215
 0 217 256 251 0 +251 .0022225 0 .0466471 -.0022225 -543636316518992e-28 .046647
1 0 1 141 258 253 258 258 256 134 259 0 0 0 0 0 0 +260 261 136 260 3 12 2 6 1 FF
F1 262 263 264 135 261 2 0 45 24 262 .000438185852673697 .00273954902710495 .000
438194378883085 .003110964455815215 .000531311617970672 .00347957798889019 .0009
85426267144454 .004305610523390705 .001436279594224254 .00467858913343066 .00251
151687845591 .00502795513553706 .0030954961347468 .00499121425180629 .0041184676
77250245 .00450984005046745 .00451901927439951 .004083295537262905 .004830232555
76713 .00329725920564924 .00488318602369333 .00301966650010975 .0048831858526737
 .00273954902705059 127 6 263 4 2 2 2 2 4 128 6 264 0 .16034520769469 .400553202
803457 .640761197912222 .880969193020989 1 17 217 0 246 61 61 56 209 218 257 0 +
137 251 214 0 1 257 265 266 +174 267 0 ?133 265 249 0 33 251 268 0 +268 -.002222
5 272177751110499e-33 -.0015621 .0022225 -543638582060606e-28 -.0015621 0 1 141
 266 257 266 266 251 134 267 0 0 0 0 0 0 +269 270 136 269 3 12 2 6 1 FFF1 271 27
2 273 135 270 2 0 45 24 271 .0048831858526737 .002739549027050585 .0048831861388
9642 .00227020313555202 .00473460129621211 .00181290510628296 .00412646052761053
5 .00097587026981288 .003632415702146665 .000662339658433348 .00252186982032597
 .000450491566131056 .00194710027081468 .000560134791647987 .000992527352294145
 .00116592563352251 .000648594428358841 .00163930918812197 .000461274530655122 .
002368873813652785 .0004381813802884505 .00255455895567463 .000438185852673697 .
00273954902710495 127 6 272 4 2 2 2 2 4 128 6 273 0 .19945458090478 .43968017445
96375 .679905768014495 .920131361569354 1 17 33 0 274 35 35 25 31 30 265 29 -137
 268 248 0 1 265 275 276 +237 277 0 ?133 275 245 0 54 268 278 0 +278 .0022225 -5
44355502220998e-33 0 -.002222499985424405 -254535866323017e-21 0 0 1 141 276 265
 276 276 268 134 277 0 0 0 0 0 0 +279 280 136 279 3 24 2 12 1 FFF1 281 282 283 1
35 280 2 0 45 48 281 3.141592653589795 0 3.225761695448435 0 3.309930737307075 0
 3.49510262939608 0 3.596105479626445 0 3.79811118008718 0 3.899114030317545 0 4
.10111973077828 0 4.202122581008645 0 4.40412828146938 0 4.50513113169975 0 4.70
713683216048 0 4.80813968239085 -3468558773533915e-34 5.01014538285158 -34685587
73533915e-34 5.11114823308195 -3468558773533915e-34 5.31315393354268 -3468558773
533915e-34 5.41415678377305 -3468558773533915e-34 5.61616248423378 -346855877353
3915e-34 5.71716533446415 -3468558773533915e-34 5.91917103492489 -34685587735339
15e-34 6.02017388515525 -3468558773533915e-34 6.17517959264212 -3468558773533915
e-34 6.22918244989862 -3468558773533915e-34 6.28318530715513 -3468558773533915e-
34 127 12 282 4 2 2 2 2 2 2 2 2 2 2 4 128 12 283 0 .0803755144032924 .1768261316
87243 .273276748971193 .3697273662551435 .466177983539095 .562628600823045 .6590
79218106996 .755529835390947 .851980452674897 .948431069958848 1 17 54 0 284 51
 51 52 188 194 275 187 +137 278 244 0 1 275 285 286 +237 287 0 ?133 285 303 0 46
 278 288 0 +288 .00266065 488753475922711e-33 .0466471 -.00266065188015622 30471
59185662475e-22 .0466470988159463 0 1 141 286 275 286 286 278 134 287 0 0 0 0 0
 0 +289 290 136 289 3 24 2 12 1 FFF1 291 292 293 135 290 2 0 45 48 291 6.2831853
0717959 .0015621 6.19901626531924 .0015621 6.11484722345889 .0015621 5.929675331
36613 .0015621 5.82867248113371 .0015621 5.62666678066887 .0015621 5.52566393043
646 .0015621 5.32365822997162 .0015621 5.2226553797392 .0015621 5.02064967927437
 .0015621 4.91964682904195 .0015621 4.71764112857711 .0015621 4.6166382783447 .0
015621 4.41463257787986 .0015621 4.313629727647445 .0015621 4.11162402718261 .00
15621 4.01062117695019 .0015621 3.808615476485355 .0015621 3.70761262625294 .001
5621 3.505606925788105 .0015621 3.404604075555685 .0015621 3.24963654368686 .001
5621 3.195671862050445 .0015621 3.141707180414035 .0015621 127 12 292 4 2 2 2 2
 2 2 2 2 2 2 4 128 12 293 0 .0803784446021352 .176832578124697 .273286711647259
 .369740845169821 .466194978692383 .562649112214945 .659103245737507 .7555573792
6007 .852011512782632 .948465646305194 1 17 46 0 294 231 231 44 49 230 285 229 +
137 288 302 0 1 285 295 296 +247 297 0 ?133 295 364 0 298 288 299 0 +299 -.00266
0652249564945 -304715960925978e-21 -.0015621 .00266065 -433680868994202e-33 -.00
15621 0 1 141 296 285 296 296 288 53 247 301 0 300 237 19 301 +0 0 .042383048541
66665 .00502605145833333 0 0 -1 0 -1 0 134 297 0 0 0 0 0 0 +302 303 136 302 3 12
 2 6 1 FFF1 304 305 306 135 303 2 0 45 24 304 4.71238898038469 -1.01293637233013
 4.50294947014508 -1.012936342660776 4.29350995990547 -1.012936312991424 3.87463
0939426245 -1.01293625365272 3.665191429186635 -1.012936223983364 3.246312408707
41 -1.012936164644658 3.0368728984678 -1.012936134975304 2.61799387798858 -1.012
936075636598 2.40855436774897 -1.012936045967244 1.98971352286763 -1.01293598663
3946 1.780312188225905 -1.012935956970002 1.57091085358418 -1.012935927306056 12
7 6 305 4 2 2 2 2 4 128 6 306 0 .200007291267934 .400014582535868 .6000218738038
02 .800029165071736 1 14 300 289 307 1e-8 245 18 294 5 247 +0 0 245 18 27 50 19
 356 0 16 247 6 308 +-.0026606858526737 -.002739549027050585 -.0015621 0 0 1 1 0
 0 141 301 309 310 310 247 137 309 441 0 1 311 312 313 +247 314 0 ?141 310 288 3
01 301 247 133 311 440 0 231 315 309 0 +309 -.00266065188015622 304715918566838e
-21 .0466470988159463 .00266065 -1629178253075705e-34 .0466471 0 1 133 312 445 0
 35 309 316 0 +316 .0022225 -543633138505584e-28 -.0015621 -.0022225 27217775111
0499e-33 -.0015621 0 1 141 313 311 313 313 309 134 314 0 0 0 0 0 0 +317 318 136
 317 3 14 2 7 1 FFF1 319 320 321 135 318 2 0 45 28 319 1.57091085358418 -1.01293
5927306056 1.570872677986295 -1.012935927311464 1.57083450238841 -1.012935927316
872 1.361356816551496 -1.01293595698947 1.151917306312468 -1.01293598665666 .733
038285834412 -1.01293604599104 .523598775595384 -1.01293607565823 .1047197551173
278 -1.01293613499261 -.1047197551217002 -1.0129361646598 -.523598775599756 -1.0
1293622399418 -.733038285838784 -1.01293625366137 -1.15191730631684 -1.012936312
99575 -1.361356816555868 -1.012936342661504 -1.570796326794895 -1.01293637233013
 127 7 320 4 2 2 2 2 2 4 128 7 321 0 364536817342165e-19 .2000291629453875 .4000
2187220904 .600014581472693 .800007290736346 1 17 35 0 274 33 33 11 29 10 312 0
 -137 316 446 0 1 312 322 323 +237 324 0 ?133 322 449 0 51 316 325 0 +325 -.0022
22499985424405 -254535866323017e-21 0 .0022225 0 0 0 1 141 323 312 323 323 316 1
34 324 0 0 0 0 0 0 +326 327 136 326 3 24 2 12 1 FFF1 328 329 330 135 327 2 0 45
 48 328 -2446043367854145e-26 -3468558773533915e-34 .0469999929501356 -346855877
3533915e-34 .0939999859247316 -3468558773533915e-34 .242002829131269 -3468558773
533915e-34 .343005679363208 -3468558773533915e-34 .545011379827088 -346855877353
3915e-34 .646014230059027 -3468558773533915e-34 .848019930522907 -34685587735339
15e-34 .949022780754846 -3468558773533915e-34 1.151028481218726 -346855877353391
5e-34 1.252031331450664 -3468558773533915e-34 1.454037031914544 -346855877353391
5e-34 1.555039882146485 -3468558773533915e-34 1.757045582610365 0 1.858048432842
305 0 2.060054133306185 0 2.16105698353812 0 2.363062684002 0 2.46406553423394 0
 2.66607123469782 0 2.76707408492976 0 2.9592488413044 0 3.050420747447095 0 3.1
41592653589795 0 127 12 329 4 2 2 2 2 2 2 2 2 2 2 4 128 12 330 0 .04488168724279
895 .1413323045267498 .2377829218107005 .3342335390946515 .430684156378602 .5271
34773662553 .623585390946503 .720036008230454 .816486625514403 .912937242798354
 1 17 51 0 284 54 54 47 187 331 322 188 +137 325 450 0 1 322 332 333 +237 334 0
 ?133 332 454 0 129 325 335 0 +335 -.002222499996356095 1272680157852566e-22 .04
5085 .0022225 272177751110499e-33 .045085 0 1 141 333 322 333 333 325 134 334 0
 0 0 0 0 0 +336 337 136 336 3 24 2 12 1 FFF1 338 339 340 135 337 2 0 45 48 338 3
.141707180414035 .0015621 3.094669011819205 .0015621 3.04763084322438 .0015621 2
.89958982439966 .0015621 2.79858697416977 .0015621 2.59658127370999 .0015621 2.4
955784234801 .0015621 2.293572723020325 .0015621 2.192569872790435 .0015621 1.99
0564172330655 .0015621 1.88956132210077 .0015621 1.68755562164099 .0015621 1.586
5527714111 .0015621 1.384547070951322 .0015621 1.283544220721432 .0015621 1.0815
38520261654 .0015621 .980535670031765 .0015621 .778529969571987 .0015621 .677527
119342098 .0015621 .47552141888232 .0015621 .3745185686524305 .0015621 .18234381
22816945 .0015621 .0911719061408472 .0015621 0 .0015621 127 12 339 4 2 2 2 2 2 2
 2 2 2 2 4 128 12 340 0 .04491650484304235 .1413636061447414 .2378107074464405 .
334257808748139 .430704910049838 .527152011351537 .623599112653236 .720046213954
935 .816493315256634 .912940416558333 1 17 129 0 204 66 66 59 123 130 332 0 +137
 335 455 0 1 332 341 342 +165 343 0 ?133 341 456 0 58 335 91 0 +91 .0022225 2721
77751110499e-33 .0466471 -.0022225 -543638582060606e-28 .0466471 0 1 141 342 332
 342 342 335 134 343 0 0 0 0 0 0 +344 345 136 344 3 24 2 12 1 FFF1 346 347 348 1
35 345 2 0 45 48 346 6.28324257062879 .0015621 6.23624172096115 .0015621 6.18924
087129352 .0015621 6.04123533036306 .0015621 5.94023063910023 .0015621 5.7382212
5657457 .0015621 5.63721656531174 .0015621 5.43520718278609 .0015621 5.334202491
52326 .0015621 5.13219310899761 .0015621 5.03118841773478 .0015621 4.82917903520
912 .0015621 4.72817434394629 .0015621 4.52616496142064 .0015621 4.4251602701578
1 .0015621 4.223150887632155 .0015621 4.122146196369325 .0015621 3.9201368138436
7 .0015621 3.819132122580845 .0015621 3.61712274005519 .0015621 3.51611804879236
 .0015621 3.32393978954962 .0015621 3.232766221569705 .0015621 3.141592653589795
 .0015621 127 12 347 4 2 2 2 2 2 2 2 2 2 2 4 128 12 348 0 .0448816872427984 .141
3323045267492 .2377829218106995 .3342335390946505 .430684156378601 .527134773662
551 .623585390946502 .720036008230452 .816486625514402 .912937242798353 1 17 58
 0 216 209 209 56 61 349 341 217 -137 91 457 0 1 341 81 350 +165 351 0 ?141 350
 341 350 350 91 134 351 0 0 0 0 0 0 +352 353 136 352 3 24 2 12 1 FFF1 354 355 35
6 135 353 2 0 45 48 354 3.141592653589795 0 3.225761695448435 0 3.30993073730707
5 0 3.49510262939608 0 3.596105479626445 0 3.79811118008718 0 3.899114030317545
 0 4.10111973077828 0 4.202122581008645 0 4.40412828146938 0 4.50513113169975 0
 4.70713683216048 0 4.80813968239085 0 5.01014538285158 0 5.11114823308195 0 5.3
1315393354268 0 5.41415678377305 0 5.61616248423378 0 5.71716533446415 0 5.91917
103492489 0 6.02017388515525 0 6.17517959264212 0 6.22918244989862 0 6.283185307
15513 0 127 12 355 4 2 2 2 2 2 2 2 2 2 2 4 128 12 356 0 .0803755144032924 .17682
6131687243 .2732767489711935 .3697273662551445 .466177983539095 .562628600823045
 .659079218106997 .755529835390947 .851980452674897 .948431069958848 1 15 216 45
8 0 58 108 204 17 61 0 246 217 217 55 58 349 253 209 +16 349 206 357 1e-8 61 218
 130 0 0 0 1 81 1 357 484 358 349 0 0 359 360 361 16 218 205 359 1e-8 217 194 34
9 0 0 0 1 16 130 172 360 1e-8 129 349 205 0 0 0 1 81 1 360 485 358 130 0 0 357 3
62 363 16 205 144 362 1e-8 66 130 364 0 0 0 1 81 1 362 486 358 205 0 0 360 365 3
66 16 364 81 365 1e-8 69 205 90 0 0 0 1 81 1 365 487 358 364 0 0 362 367 368 17
 69 0 84 72 72 67 149 364 21 148 +16 90 49 367 1e-8 72 364 80 0 0 0 1 81 1 367 4
88 358 90 0 0 365 89 369 80 255 1 358 0 370 8001 0 0 0 0 3 5 0 0 0 FFFFTFTFFFFFF
F2 81 1 89 489 358 80 0 0 367 95 371 83 255 3 369 .686274509803922 .658823529411
765 .63921568627451 81 1 95 490 358 85 0 0 89 0 372 83 3 371 .686274509803922 .6
58823529411765 .63921568627451 83 3 372 .686274509803922 .658823529411765 .63921
568627451 79 255 15 370 SDL/TYSA_COLOUR15 84 46 0 72 83 0 17 149 0 159 148 148 7
0 69 364 160 0 -133 21 463 0 69 92 7 0 +7 .00278765 341388664964312e-33 0 -.0027
87649995429505 159630454084229e-21 0 0 1 137 92 460 0 1 81 21 373 +23 374 0 ?141
 373 81 373 373 92 134 374 0 0 0 0 0 0 +375 376 136 375 3 24 2 12 1 FFF1 377 378
 379 135 376 2 0 45 48 377 -572634492064239e-19 0 .0469435862184309 0 .093944435
8860683 0 .2419499768165325 0 .3429546680793595 0 .544964050605016 0 .6459687418
67843 0 .847978124393499 0 .948982815656326 0 1.150992198181982 0 1.251996889444
81 0 1.454006271970466 0 1.555010963233295 0 1.75702034575895 0 1.85802503702177
5 0 2.060034419547435 0 2.16103911081026 0 2.363048493335915 0 2.464053184598745
 0 2.6660625671244 0 2.767067258387225 0 2.959245517629965 0 3.05041908560988 0
 3.141592653589795 0 127 12 378 4 2 2 2 2 2 2 2 2 2 2 4 128 12 379 0 .0448816872
4279985 .1413323045267506 .237782921810701 .334233539094652 .4306841563786025 .5
27134773662553 .623585390946504 .720036008230454 .816486625514403 .9129372427983
54 1 15 159 109 0 148 164 0 14 83 43 380 1e-8 164 94 78 5 23 +0 0 164 94 27 81 1
 380 44 358 83 381 0 107 172 382 13 27 347 0 0 0 0 0 0 9 16 14 16 341 383 1e-8 1
8 0 32 5 19 +0 0 18 0 27 81 1 383 342 358 16 384 0 307 385 386 14 18 372 385 1e-
8 300 16 387 5 6 +0 0 300 16 27 15 32 344 0 31 16 388 15 388 345 0 298 16 0 17 2
98 0 388 389 389 36 40 390 295 0 +17 389 0 388 298 298 38 43 391 392 0 +17 40 0
 387 43 43 38 298 390 393 389 -16 390 351 394 1e-8 298 391 395 0 0 0 1 81 1 394
 478 358 390 0 0 396 397 398 16 391 350 396 1e-8 389 30 390 0 0 0 1 16 395 321 3
97 1e-8 231 390 230 0 0 0 1 81 1 397 479 358 395 0 0 394 399 400 17 231 0 294 46
 46 41 229 395 311 0 +16 230 295 399 1e-8 46 395 331 0 0 0 1 81 1 399 480 358 23
0 0 0 397 401 402 16 331 267 401 1e-8 51 230 194 0 0 0 1 81 1 401 481 358 331 0
 0 399 403 404 16 194 235 403 1e-8 54 331 218 0 0 0 1 81 1 403 482 358 194 0 0 4
01 359 405 81 1 359 483 358 218 0 0 403 357 406 83 3 405 .686274509803922 .65882
3529411765 .63921568627451 83 3 406 .686274509803922 .658823529411765 .639215686
27451 83 3 404 .686274509803922 .658823529411765 .63921568627451 83 3 402 .68627
4509803922 .658823529411765 .63921568627451 15 294 292 0 46 300 0 17 229 0 228 4
9 49 44 231 395 232 0 -15 228 202 0 49 236 0 83 3 400 .686274509803922 .65882352
9411765 .63921568627451 81 1 396 477 358 391 0 0 407 394 408 16 30 349 407 1e-8
 31 10 391 0 0 0 1 81 1 407 476 358 30 0 0 28 396 409 81 1 28 475 358 10 0 0 385
 407 410 83 3 409 .686274509803922 .658823529411765 .63921568627451 81 1 385 373
 358 18 411 0 383 28 412 83 3 410 .686274509803922 .658823529411765 .63921568627
451 81 2 411 374 413 18 0 385 384 0 414 415 83 3 412 .686274509803922 .658823529
411765 .63921568627451 80 2 413 416 417 9000 0 0 0 0 3 5 0 0 0 FFFFTFFFFFFFFF1 1
 81 2 384 343 413 16 0 383 418 411 419 420 82 255 1 414 1 82 1 415 145 81 2 418
 291 413 300 0 307 421 384 422 423 82 1 419 1 82 1 420 138 81 1 307 290 358 300
 418 0 424 383 425 81 2 421 231 413 245 0 424 426 418 427 428 82 1 422 1 82 1 42
3 173 14 245 229 424 1e-8 236 300 274 5 237 +0 0 236 300 27 81 1 424 230 358 245
 421 0 244 307 429 81 2 426 200 413 236 0 244 430 421 431 432 82 1 427 1 82 1 42
8 65 81 1 244 199 358 236 426 0 433 424 434 81 2 430 138 413 108 0 433 435 426 4
36 437 82 1 431 1 82 1 432 166 14 108 136 433 1e-8 94 236 216 5 165 +0 0 94 236
 27 81 1 433 137 358 108 430 0 172 244 438 81 2 435 107 413 164 0 172 381 430 43
9 440 82 1 436 1 82 1 437 108 81 1 172 106 358 164 435 0 380 433 441 81 2 381 45
 413 83 0 380 442 435 443 444 82 1 439 1 82 1 440 56 81 2 442 32 413 94 0 107 0
 381 445 446 82 1 443 1 82 1 444 25 81 1 107 33 358 94 442 0 0 380 447 82 1 445
 1 82 1 446 99 83 3 447 .686274509803922 .658823529411765 .63921568627451 83 3 4
41 .686274509803922 .658823529411765 .63921568627451 83 3 438 .686274509803922 .
658823529411765 .63921568627451 83 3 434 .686274509803922 .658823529411765 .6392
1568627451 83 3 429 .686274509803922 .658823529411765 .63921568627451 15 274 451
 0 35 245 284 15 284 232 0 54 245 0 83 3 425 .686274509803922 .658823529411765 .
63921568627451 79 11 417 ParasolidId83 3 408 .686274509803922 .658823529411765 .
63921568627451 83 3 398 .686274509803922 .658823529411765 .63921568627451 15 387
 375 0 40 18 0 17 43 0 387 40 40 36 389 391 448 298 -133 393 386 0 40 449 450 0
 +450 .00266065 -16291782530757e-32 -.0015621 -.00266065188015622 -3047159186191
53e-21 -.001562098815946275 0 1 137 449 357 0 1 451 393 452 +19 453 0 ?137 450 3
85 0 1 393 448 454 +6 455 0 ?133 448 435 0 43 450 315 0 +315 -.00266065188015622
 -304715918619153e-21 -.001562098815946275 .00266065 -187437843645243e-32 -.0015
621 0 1 141 454 393 454 454 450 134 455 0 0 0 0 0 0 +456 457 136 456 3 12 2 6 1
 FFF1 458 459 460 135 457 2 0 45 24 458 1.570796326794895 -1.01293637233013 1.36
1356816555286 -1.012936342660776 1.151917306315674 -1.012936312991424 .733038285
836452 -1.012936253652718 .523598775596841 -1.012936223983364 .1047197551176184
 -1.012936164644658 -.104719755121992 -1.012936134975304 -.523598775601214 -1.01
29360756366 -.733038285840826 -1.012936045967244 -1.151879130722156 -1.012935986
633946 -1.361280465363874 -1.012935956970002 -1.570681800005595 -1.0129359273060
56 127 6 459 4 2 2 2 2 4 128 6 460 0 .2000072912679355 .4000145825358705 .600021
873803806 .800029165071741 1 137 315 436 0 1 448 311 461 +6 462 0 ?141 461 448 4
61 461 315 134 462 0 0 0 0 0 0 +463 464 136 463 3 14 2 7 1 FFF1 465 466 467 135
 464 2 0 45 28 465 -1.570681800005595 -1.012935927306056 -1.570719975603485 -1.0
12935927311464 -1.57075815120138 -1.012935927316872 -1.7802358370383 -1.01293595
698947 -1.989675347277325 -1.01293598665666 -2.40855436775538 -1.01293604599104
 -2.61799387799441 -1.01293607565823 -3.036872898472465 -1.01293613499261 -3.246
312408711495 -1.0129361646598 -3.66519142918955 -1.01293622399418 -3.87463093942
8575 -1.01293625366137 -4.293509959906635 -1.01293631299575 -4.50294947014566 -1
.012936342661504 -4.71238898038469 -1.01293637233013 127 7 466 4 2 2 2 2 2 4 128
 7 467 0 364536817406558e-19 .200029162945392 .400021872209044 .600014581472696
 .800007290736348 1 133 451 358 0 29 468 449 0 +449 -.0022225 0 -.0015621 .00222
250110263103 -543631979710302e-28 -.0015621 0 1 141 452 451 452 452 449 134 453
 0 0 0 0 0 0 +469 470 136 469 3 12 2 6 1 FFF1 471 472 473 135 470 2 0 45 24 471
 .0004381858526737015 .002739549027050585 .0004381856380066695 .0032088949185491
55 .00058677055420911 .003666192947818215 .00119491148218825 .0045032277842883 .
00168895639876337 .00481675839566783 .00279950245790673 .00502860648797012 .0033
74272099192405 .00491896326245319 .004328845193754315 .004313172420578665 .00467
277820782531 .00383978886597921 .00486009822057956 .00311022424044839 .004883191
3994867 .002924539098426545 .00488318695530473 .002739549026996225 127 6 472 4 2
 2 2 2 4 128 6 473 0 .199454580904781 .4396801744596375 .679905768014496 .920131
361569354 1 17 29 0 32 31 31 25 35 10 451 0 +137 468 359 0 1 34 451 474 +19 475
 0 ?133 34 360 0 31 476 468 0 +468 .00222250110263103 -543631979710302e-28 -.001
5621 -.0022225 -433680868994202e-33 -.0015621 0 1 141 474 34 474 474 468 134 475
 0 0 0 0 0 0 +477 478 136 477 3 12 2 6 1 FFF1 479 480 481 135 478 2 0 45 24 479
 .00488318695530473 .002739549026996225 .00488317837240544 .00236813359828596 .0
0479006107518303 .001999520065210985 .00433594628112761 .001173487530710466 .003
88509286314844 .000800508920670517 .00280985540169853 .000451142918564116 .00222
587605344688 .000487883802294883 .00120290433416162 .000969258003633729 .0008023
52646445483 .00139580251683827 .000491139235514512 .002181838848451935 .00043818
57244089825 .00245943155399142 .0004381858526737015 .002739549027050585 127 6 48
0 4 2 2 2 2 4 128 6 481 0 .160345207694689 .400553202803455 .640761197912222 .88
0969193020988 1 137 476 361 0 1 392 34 482 +19 483 0 ?133 392 362 0 389 299 476
 0 +476 .00266065 0 -.0015621 -.002660652249564945 -304715960925978e-21 -.001562
1 0 1 141 482 392 482 482 476 134 483 0 0 0 0 0 0 +484 485 136 484 3 12 2 6 1 FF
F1 486 487 488 135 485 2 0 45 24 486 .0053213358526737 .002739549027050585 .0053
2133604773139 .003301423108604805 .00514345861299261 .0038488741779476 .00441542
6906989415 .00485092445364616 .00382398448514957 .00522626538557691 .00249450204
9450225 .00547987781611896 .00180642059945439 .00534861921187953 .00066366008532
004 .0046234010326496 .0002519230561794475 .00405669329159383 276484782228485e-1
9 .00318320025996991 2928915555423335e-24 .002960804661240775 336031087555533e-2
2 .00273924431108966 127 6 487 4 2 2 2 2 4 128 6 488 0 .1994472748155055 .439664
0688249975 .679880862834491 .920097656843985 1 137 299 363 0 1 295 392 489 +19 4
90 0 ?141 489 295 489 489 299 134 490 0 0 0 0 0 0 +491 492 136 491 3 12 2 6 1 FF
F1 493 494 495 135 492 2 0 45 24 493 336031087555533e-22 .00273924431108966 9483
8359729968e-21 .002294710090124995 .0001115683739005204 .001853538212493915 .000
655159067533916 .000864749693065085 .00119489509513912 .0004182410141666345 .002
482108095188925 1733996404539745e-28 .003181214880238735 4398408667448905e-20 .0
0440585832000521 .000620257773377241 .0048853759902364 .001130892490591558 .0052
5794301428747 .002071890270406195 .00532133596923011 .002404208395027275 .005321
3358526737 .002739549027050585 127 6 494 4 2 2 2 2 4 128 6 495 0 .16031445085347
85 .400531244862973 .640748038872467 .880964832881961 1 83 3 386 .68627450980392
2 .658823529411765 .63921568627451 83 3 382 .686274509803922 .658823529411765 .6
3921568627451 83 3 368 .686274509803922 .658823529411765 .63921568627451 83 3 36
6 .686274509803922 .658823529411765 .63921568627451 83 3 363 .686274509803922 .6
58823529411765 .63921568627451 83 3 361 .686274509803922 .658823529411765 .63921
568627451 15 246 201 0 61 236 228 15 204 139 0 66 108 0 17 187 0 173 188 188 52
 51 331 180 0 -15 173 108 0 187 164 159 141 308 299 496 497 19 141 496 449 498 3
08 19 141 497 476 308 498 19 141 498 468 497 496 19 141 254 232 254 254 235 134
 255 0 0 0 0 0 0 +499 500 136 499 3 12 2 6 1 FFF1 501 502 503 135 500 2 0 45 24
 501 .0053213358526737 .00273954902705059 .00532133604773139 .00330142310860481
 .00514345861299261 .0038488741779476 .00441542690698941 .00485092445364616 .003
823984485149565 .00522626538557691 .00249450204945022 .00547987781611896 .001806
420599454385 .00534861921187953 .000663660085320035 .0046234010326496 .000251923
0561794435 .00405669329159383 2764847822284865e-20 .003183200259969925 292891555
5500585e-24 .00296080466124081 336031087511124e-22 .00273924431108971 127 6 502
 4 2 2 2 2 4 128 6 503 0 .1994472748155075 .439664068825001 .679880862834496 .92
0097656843991 1 141 248 325 504 505 237 141 504 316 506 248 237 141 505 268 248
 506 237 141 506 278 505 504 237 17 63 0 109 123 123 59 66 205 116 129 -15 109 2
1 0 63 94 87 141 181 160 181 181 163 134 182 0 0 0 0 0 0 +507 508 136 507 3 12 2
 6 1 FFF1 509 510 511 135 508 2 0 45 24 509 .00557531100020649 .0028711320723750
7 .00557531121389591 .00322247322720825 .00550889243472808 .00357064754076152 .0
0511854205933453 .00455654292454918 .00461613591146516 .0050915385018957 .003333
03731620781 .00569529369173414 .00260056047584939 .00574136394341614 .0012519057
07393402 .00530313350059268 .000686406818267616 .00483529859806624 .000116869385
1004532 .003799291562278775 750415603348514e-22 .00333705294652601 1100477697990
598e-23 .002871291702829155 127 6 510 4 2 2 2 2 4 128 6 511 0 .1190351671180374
 .35925196112753 .599468755137024 .839685549146519 1 141 175 91 512 513 165 141
 512 335 514 175 165 141 513 198 175 514 165 141 514 210 513 512 165 141 117 88
 117 117 100 134 118 0 0 0 0 0 0 +515 516 136 515 3 12 2 6 1 FFF1 517 518 519 13
5 516 2 0 45 24 517 .00557531100020649 .00287031509039429 .00557531127002504 .00
345899857790314 .00538894333285444 .00403257031981625 .00462616085587739 .005082
42808411562 .004006487375522975 .00547567186055768 .002613545319888975 .00574136
42248563 .001892619970547545 .00560382700699949 .000695312576194661 .00484396672
22425 .000263922310689736 .004250195443185315 2896949560543435e-20 .003335096299
63809 405143127541132e-23 .00310218994678429 962592907027826e-23 .00287015545986
124 127 6 518 4 2 2 2 2 4 128 6 519 0 .199454580904782 .4396801744596385 .679905
768014497 .920131361569356 1 141 111 7 520 521 23 141 520 92 522 111 23 141 521
 133 111 522 23 141 522 142 521 520 23 19 17 5 0 1 0 9 5 S0 141 22 21 22 22 7 13
4 24 0 0 0 0 0 0 +523 524 136 523 3 24 2 12 1 FFF1 525 526 527 135 524 2 0 45 48
 525 3.141592653589795 .045085 3.0574236117305 .045085 2.973254569871205 .045085
 2.788082677780755 .045085 2.687079827549605 .045085 2.485074127087295 .045085 2
.384071276856145 .045085 2.182065576393835 .045085 2.081062726162685 .045085 1.8
79057025700375 .045085 1.778054175469225 .045085 1.576048475006915 .045085 1.475
045624775762 .045085 1.273039924313456 .045085 1.172037074082302 .045085 .970031
373619996 .045085 .869028523388843 .045085 .667022822926536 .045085 .56601997269
5382 .045085 .364014272233076 .045085 .2630114220019225 .045085 .108024802330247
2 .045085 .0540410328897253 .045085 572634492032607e-19 .045085 127 12 526 4 2 2
 2 2 2 2 2 2 2 2 4 128 12 527 0 .0803769794764538 .176829354848198 .273281730219
9425 .369734105591687 .466186480963431 .562638856335176 .65909123170692 .7555436
07078665 .85199598245041 .948448357822154 1 141 20 315 528 528 6 141 528 450 20
 20 6 74 4 CI16 index_map_offset0 0 1 dCCZ20 15 11 0 0 411 95 529 530 531 532 53
3 534 535 13 2 0 0 0 0 0 0 0 0 0 81 2 529 466 536 1 0 530 0 0 537 538 81 2 530 4
67 539 1 529 531 0 0 540 541 81 2 531 468 542 1 530 532 0 0 543 544 81 2 532 469
 545 1 531 533 0 0 546 547 81 2 533 470 548 1 532 534 0 0 549 550 81 1 534 471 5
51 1 533 535 0 0 552 81 1 535 472 553 1 534 13 0 0 554 81 1 13 473 555 1 535 2 0
 0 556 80 1 555 553 557 9000 0 0 0 0 3 5 0 0 0 FFTFFFFFFFFFFF3 84 255 4 556 axle
79 13 557 AdamsPartName80 1 553 548 558 9000 0 0 0 0 3 5 0 0 0 FFTFFFFFFFFFFF1 8
2 1 554 2 79 12 558 UG2/ADAMS_ID80 1 551 559 560 8038 0 0 0 0 0 0 0 0 0 TTTTTTTT
TTTTTF10 98 255 15 552 97 120 108 101 59 97 120 108 101 95 98 111 100 121 49 79
 14 560 SDL/TYSA_UNAME80 2 548 545 561 9000 0 0 0 0 3 5 0 0 0 FFTFFFFFFFFFFF1 1
 82 1 549 1 82 1 550 1 79 18 561 ATOM_ID_2001_COUNT80 2 545 542 562 9000 0 0 0 0
 3 5 0 0 0 FFTFFFFFFFFFFF1 1 82 1 546 1 82 1 547 105 79 12 562 ATOM_ID_200180 2
 542 539 563 9000 0 0 0 0 3 5 0 0 0 FFTFFFFFFFFFFF1 1 82 1 543 1 82 1 544 129 79
 19 563 ENT_TIME_STAMP_200180 2 539 536 564 9000 0 0 0 0 3 5 0 0 0 FFTFFFFFFFFFF
F1 1 82 1 540 1 82 1 541 76 79 30 564 LAST_BODY_MODIFYING_FEATURE_ID80 2 536 413
 565 9000 0 0 0 0 3 5 0 0 0 FFTFFFFFFFFFFF1 1 82 1 537 1 82 1 538 15548153 79 10
 565 BODY_MATCH80 1 12 555 566 9000 0 0 0 0 3 5 0 0 0 FFTFFFFFFFFFFF3 84 6 14 SO
LID179 15 566 AdamsObjectName1 0 
